# xmcd
#
# Track frame offsets:
#	187
#	14965
#	51562
#	69637
#	77042
#	83057
#	90262
#	107062
#	111267
#	122965
#	132862
#	140697
#	153037
#	163362
#	169537
#	180312
#	192337
#	200687
#	208432
#	227362
#
# Disc length: 3348 seconds
#
# Revision: 1
# Processed by: cddbd v1.5PL3 Copyright (c) Steve Scherf et al.
# Submitted via: CDex 1.50Beta5
#
DISCID=1e0d1214
DTITLE=伏見健二＆澤下禎 - ブルーフォレスト物語
DYEAR=1993
DGENRE=Easy Listening -> General Easy Listening
TTITLE0=青き森
TTITLE1=主顕祭
TTITLE2=二つの月
TTITLE3=蒼髪の英雄 エルシュ
TTITLE4=魔の姫将軍 ラムティガ
TTITLE5=白き風の仔 ハヌマン
TTITLE6=月下草の姫 〜ラニスイの哀しみ〜
TTITLE7=リタ、風の平原
TTITLE8=ラグ神帝国
TTITLE9=略奪
TTITLE10=夕立
TTITLE11=ゴブリナのうたがきこえる
TTITLE12=龍斑
TTITLE13=出陣の儀
TTITLE14=美貌の軍師 ー蛍光の中でー
TTITLE15=悲劇の妾姫
TTITLE16=確執
TTITLE17=戦太鼓
TTITLE18=ヴァグシャラ、帝相の王子よ
TTITLE19=Eyes Of R'ta
EXTD=
EXTT0=
EXTT1=
EXTT2=
EXTT3=
EXTT4=
EXTT5=
EXTT6=
EXTT7=
EXTT8=
EXTT9=
EXTT10=
EXTT11=
EXTT12=
EXTT13=
EXTT14=
EXTT15=
EXTT16=
EXTT17=
EXTT18=
EXTT19=
PLAYORDER=
